<svg id="eAHSWT1pLK41" xmlns="http://www.w3.org/2000/svg" xmlns:xlink="http://www.w3.org/1999/xlink" viewBox="0 0 192.756 192.756" shape-rendering="geometricPrecision" text-rendering="geometricPrecision" project-id="0f776665e3c94c3896c33ff2769f93d8" export-id="c06c6fd3fdb840e3865fb75b334a2f89" cached="false"><g transform="translate(0.000002 0.000002)" clip-rule="evenodd"><path d="M-0.000002,0C65.582399,0,163.54183,0,192.756,0v192.756c-33.08563,1.785311-131.141193.946529-192.756,0L-0.000002,0Z" clip-rule="evenodd" fill="none" fill-rule="evenodd"/><path d="M57.176,82.79h5.871v1.326c0,.663,0,1.515-.095,2.557.474-2.936,1.61-4.356,3.504-4.356.379,0,.757.095,1.23.189v6.913h-.852c-2.367,0-3.314.947-3.314,3.409v4.735h-6.344v-14.773ZM78.86,94.248c-.757,2.747-2.178,3.883-4.924,3.883-3.693,0-5.303-2.652-5.303-8.05c0-5.492,1.42-7.765,5.776-7.765c2.462,0,3.693,1.042,4.355,3.409-.095-.758-.095-1.515-.095-2.273v-.662h6.25v14.772h-6.25v-.758c.001-.757.096-1.609.191-2.556Zm-1.894-1.231c1.231,0,1.894-.852,1.894-2.746c0-1.515-.663-2.367-1.799-2.367-1.42,0-1.989.852-1.989,2.557s.663,2.556,1.894,2.556ZM87.193,82.79h6.155l-.094,1.42v2.367c.663-3.03,2.178-4.261,5.114-4.261c1.893,0,3.125.568,3.977,1.705.758.947.758,2.178.758,3.977v9.564h-6.25v-7.481c0-1.61-.284-2.367-1.609-2.367s-1.799.852-1.799,2.651v7.197h-6.25v-14.772h-.002Zm18.18,10.795c2.273.189,3.979.378,5.02.378c1.42,0,1.988-.284,1.988-.947c0-1.042-1.041-.757-3.314-.852-3.029-.189-4.26-1.61-4.26-4.64c0-3.978,1.893-5.208,6.627-5.208c1.895,0,4.168.189,6.723.568v4.451c-2.082-.189-3.691-.284-4.639-.284-1.516,0-2.178.189-2.178.852c0,.852.662.947,2.082.947h.664c3.504,0,4.734.853,4.734,3.978c0,3.788-1.895,5.303-6.629,5.303-2.367,0-4.641-.285-6.818-.664v-3.882ZM120.998,82.79h6.344c-.094.852-.094,1.894-.094,3.219.852-2.651,2.271-3.693,5.018-3.693c3.693,0,5.113,2.178,5.113,7.007c0,5.966-1.609,8.807-5.682,8.807-2.461,0-3.691-1.137-4.449-3.883v7.008h-6.25v-18.465Zm8.143,10.321c1.232,0,1.895-1.042,1.895-2.841c0-1.61-.568-2.367-1.799-2.367-1.42,0-1.988.852-1.988,2.557s.567,2.651,1.892,2.651Zm10.228-3.503c0-5.113,2.557-7.292,8.332-7.292c5.682,0,8.332,2.178,8.332,7.292c0,5.965-2.557,8.523-8.332,8.523-5.871,0-8.332-2.558-8.332-8.523Zm10.699.852c0-2.083-.758-3.03-2.367-3.03s-2.367.946-2.367,2.746c0,2.178.758,3.22,2.367,3.22c1.516,0,2.367-1.042,2.367-2.936Zm8.332-7.67h5.871v3.883c.379-2.936,1.516-4.356,3.41-4.356.379,0,.758.095,1.23.189v6.913h-.852c-2.273,0-3.221.947-3.221,3.409v4.735h-6.438v-14.773Z" clip-rule="evenodd" fill="#002f54" fill-rule="evenodd"/><path d="M44.866,103.244h5.776v1.988h-3.22v.852h3.22v1.516h-3.22v.851h3.22v1.799h-5.776v-7.006Zm14.961,0h5.776v2.178h-3.03v.851h3.03v1.989h-3.03v1.988h-2.746v-7.006Zm14.867,0h5.776v2.178h-3.03v.851h3.03v1.989h-3.03v1.988h-2.746v-7.006ZM89.56,110.25v-7.006h2.746v7.006h-2.746Zm15.057.189c-2.18,0-3.221-1.23-3.221-3.881c0-2.463.947-3.504,3.41-3.504.852,0,1.703.094,2.557.379v2.367c-.758-.096-1.326-.096-1.801-.096-.945,0-1.42.189-1.42,1.137c0,.852.475,1.23,1.42,1.23.568,0,1.137-.094,1.801-.283v2.178c-.947.38-1.894.473-2.746.473Zm11.836-.189v-7.006h2.746v7.006h-2.746Zm12.121-7.006h5.776v1.988h-3.219v.852h3.219v1.516h-3.219v.851h3.219v1.799h-5.776v-7.006Zm17.422,5.113v1.893h-2.461v-7.006h3.029l.854,1.799c.188.473.473,1.137.756,1.893-.094-.756-.094-1.514-.094-2.461v-1.23h2.367v7.006h-2.652l-1.135-2.461c-.379-.664-.568-1.326-.758-1.988h-.096c.096.757.19,1.608.19,2.555Zm16.762,2.082c-2.273,0-3.221-1.23-3.221-3.881c0-2.463.947-3.504,3.314-3.504.947,0,1.799.094,2.652.379v2.367c-.758-.096-1.326-.096-1.801-.096-.945,0-1.42.189-1.42,1.137c0,.852.475,1.23,1.42,1.23.475,0,1.137-.094,1.801-.283v2.178c-.946.38-1.894.473-2.745.473Zm13.256-2.367l-2.271-4.828h2.84l.568,1.609c.094.379.189.758.189,1.23h.094c.096-.473.096-.852.189-1.23l.568-1.609h2.746l-2.178,4.924v2.082h-2.746v-2.178h.001Z" clip-rule="evenodd" fill="#518fc4" fill-rule="evenodd"/><path d="M44.582,100.498h6.817v-11.743h4.451v-5.87h-15.719v5.87h4.451v11.743Zm135.787-2.936h-5.965v-9.848h-3.787v-5.113h13.635v5.113h-3.883v9.848Z" clip-rule="evenodd" fill="#002f54" fill-rule="evenodd"/><path d="M24.223,87.43c-1.421,1.041-1.042,1.988.378,2.557c5.682,2.272,13.162,3.03,4.734,10.322-3.03,2.936-5.303,5.113-6.723,6.438-1.515,1.422-2.273,1.99-2.273,1.99h1.515c0,0,.663-.568,1.989-1.895.094-.096.284-.189.379-.379l6.25-6.25c7.102-6.723,1.326-8.427-4.735-10.037-2.083-.568-5.397-2.462,6.345-5.965-3.598.851-6.534,2.082-7.859,3.219Z" clip-rule="evenodd" fill="#fff" fill-rule="evenodd"/><path d="M35.113,108.736c0,0,1.23-2.273,3.882-8.523c3.409-9.279-5.303-9.469-10.89-10.794-4.829-1.231-2.462-2.462,3.978-5.208-11.742,3.503-8.238,5.303-6.061,5.871c6.061,1.61,11.553,3.409,4.451,10.132l-6.25,6.25c-.095.189-.285.283-.379.379-1.326,1.326-1.989,1.895-1.989,1.895h13.258v-.002Z" clip-rule="evenodd" fill="#546a8e" fill-rule="evenodd"/><path d="M24.223,87.43c1.325-1.137,4.261-2.368,7.859-3.22-7.386,1.61-14.394,5.113-9.848,6.439c4.451,1.326,8.522,3.03-.947,9.563-6.629,4.734-12.784,8.523-12.784,8.523h11.837c0,0,.758-.568,2.273-1.99c1.42-1.324,3.693-3.502,6.723-6.438c8.428-7.292.947-8.049-4.734-10.322-1.421-.567-1.8-1.514-.379-2.555Z" clip-rule="evenodd" fill="#546a8e" fill-rule="evenodd"/></g></svg>
